<svg width="24" height="24" viewBox="0 0 24 24" fill="none" xmlns="http://www.w3.org/2000/svg">
<path d="M2 22H8V18.5311C8 16.5138 9.50215 14.8122 11.5039 14.562L11.6279 14.5465C11.875 14.5156 12.125 14.5156 12.3721 14.5465L12.4961 14.562C14.4979 14.8122 16 16.5138 16 18.5311V22H22V11L12 2.5L2 11V22ZM2 24C0.89543 24 0 23.1046 0 22V10L11.3598 0.533486C11.7307 0.224448 12.2693 0.224449 12.6402 0.533487L24 10V22C24 23.1046 23.1046 24 22 24H15C14.4477 24 14 23.5523 14 23V18.5C14 17.3954 13.1046 16.5 12 16.5C10.8954 16.5 10 17.3954 10 18.5V23C10 23.5523 9.55229 24 9 24H2Z" fill="#7B8D9E"/>
</svg>
