<svg width="25" height="24" viewBox="0 0 25 24" fill="none" xmlns="http://www.w3.org/2000/svg">
<mask id="mask0_5_1060" style="mask-type:alpha" maskUnits="userSpaceOnUse" x="0" y="0" width="25" height="24">
<rect x="0.5" width="24" height="24" fill="#D9D9D9"/>
</mask>
<g mask="url(#mask0_5_1060)">
<path d="M2.5 22V4C2.5 3.45 2.69583 2.97917 3.0875 2.5875C3.47917 2.19583 3.95 2 4.5 2H20.5C21.05 2 21.5208 2.19583 21.9125 2.5875C22.3042 2.97917 22.5 3.45 22.5 4V16C22.5 16.55 22.3042 17.0208 21.9125 17.4125C21.5208 17.8042 21.05 18 20.5 18H6.5L2.5 22ZM5.65 16H20.5V4H4.5V17.125L5.65 16Z" fill="#7B8D9E"/>
</g>
</svg>
