<svg width="20" height="18" viewBox="0 0 20 18" fill="none" xmlns="http://www.w3.org/2000/svg">
<path fill-rule="evenodd" clip-rule="evenodd" d="M10.0002 1.33894C12.0722 -0.347059 14.5342 -0.341059 16.4942 0.800941C18.5892 2.02194 20.0632 4.50094 19.9982 7.39294C19.9192 10.9129 17.2462 14.0269 12.6752 16.8169L12.3192 17.0309C11.9882 17.2289 11.6572 17.4289 11.3122 17.6039C10.9072 17.8099 10.4622 17.9999 10.0002 17.9999C9.53719 17.9999 9.09319 17.8099 8.68719 17.6039C8.45719 17.4869 8.23419 17.3599 8.01319 17.2289L7.68119 17.0309C2.89319 14.1869 0.0831898 11.0019 0.00218976 7.39294C-0.0628102 4.50094 1.41119 2.02294 3.50619 0.800941C5.46619 -0.340059 7.92819 -0.348059 10.0002 1.33894ZM7.93019 7.37594L6.89419 9.44694C6.8112 9.61302 6.68361 9.75272 6.52571 9.85039C6.36782 9.94806 6.18585 9.99984 6.00019 9.99994H2.77619C3.70119 11.6459 5.48919 13.3479 8.32619 15.0849L8.70219 15.3119C8.99619 15.4869 9.28819 15.6659 9.59319 15.8209C9.72319 15.8869 9.85819 15.9549 10.0002 15.9939C10.1422 15.9539 10.2762 15.8869 10.4072 15.8209C10.6102 15.7179 10.8072 15.6029 11.0042 15.4869L11.2982 15.3119C14.3542 13.4959 16.2592 11.7179 17.2242 9.99994H13.5352L11.8322 12.5549C11.7323 12.7048 11.5938 12.8249 11.4313 12.9026C11.2688 12.9803 11.0884 13.0126 10.9091 12.9962C10.7297 12.9798 10.5581 12.9153 10.4124 12.8095C10.2667 12.7036 10.1522 12.5604 10.0812 12.3949L7.93119 7.37494L7.93019 7.37594ZM15.4872 2.52994C14.0932 1.71794 12.3512 1.74594 10.8432 3.27194C10.7328 3.38315 10.6014 3.4714 10.4568 3.53163C10.3121 3.59186 10.1569 3.62287 10.0002 3.62287C9.84347 3.62287 9.68831 3.59186 9.54363 3.53163C9.39895 3.4714 9.26761 3.38315 9.15719 3.27194C7.65019 1.74594 5.90719 1.71794 4.51319 2.52994C3.06919 3.37094 1.95319 5.15794 2.00219 7.34794C2.00519 7.49194 2.01419 7.63794 2.03019 7.78194L2.06019 7.99994H5.38219L7.10619 4.55294C7.18666 4.39227 7.30894 4.25625 7.46017 4.15919C7.6114 4.06212 7.78599 4.0076 7.96558 4.00136C8.14517 3.99512 8.32312 4.03738 8.48072 4.12371C8.63833 4.21004 8.76976 4.33724 8.86119 4.49194L8.91919 4.60594L11.1922 9.90994L12.1682 8.44494C12.2479 8.32555 12.3524 8.22472 12.4746 8.14931C12.5968 8.07391 12.7337 8.02569 12.8762 8.00794L13.0002 7.99994H17.9402C17.9738 7.78411 17.9932 7.56631 17.9982 7.34794C18.0482 5.15794 16.9312 3.37094 15.4872 2.52994Z" fill="#7B8D9E"/>
</svg>
